<svg width="19" height="15" viewBox="0 0 19 15" fill="none" xmlns="http://www.w3.org/2000/svg">
<path d="M1.78736 14.8349C1.32127 14.8349 0.932414 14.6763 0.620791 14.3589C0.309167 14.0415 0.153018 13.6451 0.152344 13.1697V2.07346C0.152344 1.59875 0.308493 1.2027 0.620791 0.885316C0.933089 0.567928 1.32161 0.40889 1.78634 0.408203H6.82594L8.84947 2.46917H16.7301C17.1955 2.46917 17.5844 2.6282 17.8967 2.94628C18.209 3.26435 18.3648 3.6604 18.3641 4.13442V13.1707C18.3641 13.6447 18.2083 14.0408 17.8967 14.3589C17.5851 14.6769 17.1962 14.8356 16.7301 14.8349H1.78736ZM1.78736 13.8045H16.7301C16.9116 13.8045 17.0606 13.745 17.1773 13.6262C17.294 13.5073 17.3523 13.3555 17.3523 13.1707V4.13339C17.3523 3.94859 17.294 3.79677 17.1773 3.67792C17.0606 3.55907 16.9116 3.49965 16.7301 3.49965H8.44376L6.42023 1.43868H1.78634C1.6049 1.43868 1.45583 1.49811 1.33914 1.61696C1.22245 1.73581 1.16411 1.88797 1.16411 2.07346V13.1707C1.16411 13.3555 1.22245 13.5073 1.33914 13.6262C1.45583 13.745 1.60524 13.8045 1.78736 13.8045Z" fill="white"/>
<path d="M1.78736 14.8349C1.32127 14.8349 0.932414 14.6763 0.620791 14.3589C0.309167 14.0415 0.153018 13.6451 0.152344 13.1697V2.07346C0.152344 1.59875 0.308493 1.2027 0.620791 0.885316C0.933089 0.567928 1.32161 0.40889 1.78634 0.408203H6.82594L8.84947 2.46917H16.7301C17.1955 2.46917 17.5844 2.6282 17.8967 2.94628C18.209 3.26435 18.3648 3.6604 18.3641 4.13442V13.1707C18.3641 13.6447 18.2083 14.0408 17.8967 14.3589C17.5851 14.6769 17.1962 14.8356 16.7301 14.8349H1.78736ZM1.78736 13.8045H16.7301C16.9116 13.8045 17.0606 13.745 17.1773 13.6262C17.294 13.5073 17.3523 13.3555 17.3523 13.1707V4.13339C17.3523 3.94859 17.294 3.79677 17.1773 3.67792C17.0606 3.55907 16.9116 3.49965 16.7301 3.49965H8.44376L6.42023 1.43868H1.78634C1.6049 1.43868 1.45583 1.49811 1.33914 1.61696C1.22245 1.73581 1.16411 1.88797 1.16411 2.07346V13.1707C1.16411 13.3555 1.22245 13.5073 1.33914 13.6262C1.45583 13.745 1.60524 13.8045 1.78736 13.8045Z" stroke="white"/>
</svg>
