<svg width="22" height="20" viewBox="0 0 22 20" fill="none" xmlns="http://www.w3.org/2000/svg">
<path d="M0.6875 0C0.505164 0 0.330295 0.105357 0.201364 0.292893C0.072433 0.48043 0 0.734784 0 1C0 1.26522 0.072433 1.51957 0.201364 1.70711C0.330295 1.89464 0.505164 2 0.6875 2H21.3125C21.4948 2 21.6697 1.89464 21.7986 1.70711C21.9276 1.51957 22 1.26522 22 1C22 0.734784 21.9276 0.48043 21.7986 0.292893C21.6697 0.105357 21.4948 0 21.3125 0H0.6875ZM0.6875 6C0.505164 6 0.330295 6.10536 0.201364 6.29289C0.072433 6.48043 0 6.73478 0 7C0 7.26522 0.072433 7.51957 0.201364 7.70711C0.330295 7.89464 0.505164 8 0.6875 8H21.3125C21.4948 8 21.6697 7.89464 21.7986 7.70711C21.9276 7.51957 22 7.26522 22 7C22 6.73478 21.9276 6.48043 21.7986 6.29289C21.6697 6.10536 21.4948 6 21.3125 6H0.6875ZM0 13C0 12.7348 0.072433 12.4804 0.201364 12.2929C0.330295 12.1054 0.505164 12 0.6875 12H21.3125C21.4948 12 21.6697 12.1054 21.7986 12.2929C21.9276 12.4804 22 12.7348 22 13C22 13.2652 21.9276 13.5196 21.7986 13.7071C21.6697 13.8946 21.4948 14 21.3125 14H0.6875C0.505164 14 0.330295 13.8946 0.201364 13.7071C0.072433 13.5196 0 13.2652 0 13ZM0.6875 18C0.505164 18 0.330295 18.1054 0.201364 18.2929C0.072433 18.4804 0 18.7348 0 19C0 19.2652 0.072433 19.5196 0.201364 19.7071C0.330295 19.8946 0.505164 20 0.6875 20H14.4375C14.6198 20 14.7947 19.8946 14.9236 19.7071C15.0526 19.5196 15.125 19.2652 15.125 19C15.125 18.7348 15.0526 18.4804 14.9236 18.2929C14.7947 18.1054 14.6198 18 14.4375 18H0.6875Z" fill="white"/>
</svg>
