<svg width="22" height="22" viewBox="0 0 22 22" fill="none" xmlns="http://www.w3.org/2000/svg">
<path fill-rule="evenodd" clip-rule="evenodd" d="M16.6688 15.024C18.12 13.1523 18.8039 10.7979 18.5814 8.43969C18.3589 6.08148 17.2468 3.89664 15.4712 2.32964C13.6957 0.762642 11.39 -0.0688011 9.02344 0.00446079C6.65683 0.0777227 4.40702 1.05019 2.73169 2.72401C1.0549 4.399 0.0796495 6.65059 0.00466682 9.01993C-0.0703159 11.3893 0.760617 13.6981 2.32813 15.4758C3.89565 17.2536 6.08178 18.3665 8.44103 18.5877C10.8003 18.809 13.1551 18.122 15.0256 16.6667L15.0756 16.719L20.0122 21.6588C20.1204 21.767 20.2487 21.8528 20.39 21.9113C20.5313 21.9699 20.6827 22 20.8356 22C20.9885 22 21.1399 21.9699 21.2812 21.9113C21.4225 21.8528 21.5508 21.767 21.659 21.6588C21.7671 21.5506 21.8528 21.4222 21.9114 21.2809C21.9699 21.1396 22 20.9881 22 20.8351C22 20.6822 21.9699 20.5307 21.9114 20.3894C21.8528 20.248 21.7671 20.1196 21.659 20.0115L16.7212 15.0729L16.6688 15.024ZM14.2528 4.37138C14.9099 5.01808 15.4325 5.78852 15.7904 6.63827C16.1483 7.48801 16.3345 8.40024 16.3383 9.32235C16.342 10.2444 16.1633 11.1582 15.8123 12.0108C15.4613 12.8634 14.945 13.6381 14.2932 14.2901C13.6414 14.9422 12.8671 15.4586 12.0148 15.8098C11.1625 16.1609 10.2491 16.3398 9.32739 16.336C8.40566 16.3323 7.49379 16.146 6.64438 15.7879C5.79497 15.4298 5.02484 14.9071 4.3784 14.2497C3.08654 12.9362 2.36587 11.1651 2.37337 9.32235C2.38087 7.4796 3.11593 5.71447 4.41844 4.41144C5.72095 3.10841 7.48538 2.37306 9.32739 2.36555C11.1694 2.35805 12.9398 3.079 14.2528 4.37138Z" fill="#B3B3B3"/>
</svg>
